<?xml version="1.0" encoding="UTF-8"?>
<svg version="1.1" xmlns="http://www.w3.org/2000/svg" width="101" height="101">
<path d="M0 0 C4.62 0 9.24 0 14 0 C14.33 8.58 14.66 17.16 15 26 C17.31 23.69 19.62 21.38 22 19 C23.25415504 17.85643649 24.52138962 16.7266698 25.8125 15.625 C29.82455932 12.17494121 33.71936583 8.60666034 37.60546875 5.015625 C39.95584405 3.03716879 42.32524074 1.50128584 45 0 C46.11979242 1.11979242 47.23889873 2.24027567 48.35546875 3.36328125 C49.5980685 4.59997791 50.85283833 5.82446294 52.11328125 7.04296875 C52.83902344 7.75066406 53.56476563 8.45835938 54.3125 9.1875 C55.00988281 9.86167969 55.70726562 10.53585938 56.42578125 11.23046875 C58 13 58 13 58 15 C58.99 15.33 59.98 15.66 61 16 C62.859375 17.70703125 62.859375 17.70703125 64.75 19.8125 C65.70132813 20.84310547 65.70132813 20.84310547 66.671875 21.89453125 C68 24 68 24 67.9296875 26.05078125 C66.77441831 28.47296329 65.44577432 29.67200799 63.375 31.375 C62.65441406 31.97828125 61.93382812 32.5815625 61.19140625 33.203125 C60.46824219 33.79609375 59.74507812 34.3890625 59 35 C54.00160414 39.21132739 49.30979219 43.55821969 44.8125 48.3125 C43 50 43 50 41 50 C41 50.66 41 51.32 41 52 C38.10652352 50.88712443 35.96073032 49.24877411 33.6875 47.1875 C33.15511719 46.70667969 32.62273438 46.22585937 32.07421875 45.73046875 C31 44 31 44 31.10546875 41.515625 C32.15023003 38.57751904 33.21323392 37.50401825 35.625 35.5625 C36.33914062 34.97082031 37.05328125 34.37914062 37.7890625 33.76953125 C38.51867187 33.18558594 39.24828125 32.60164063 40 32 C41.3392969 30.924048 42.673151 29.84126561 44 28.75 C44.5775 28.29109375 45.155 27.8321875 45.75 27.359375 C47.33843661 25.93973801 47.33843661 25.93973801 47 23 C46.34 22.67 45.68 22.34 45 22 C45 21.34 45 20.68 45 20 C37.96912664 25.43028192 37.96912664 25.43028192 31.5 31.5 C30.675 32.325 29.85 33.15 29 34 C28.34 34 27.68 34 27 34 C27 34.66 27 35.32 27 36 C25.42578125 37.5859375 25.42578125 37.5859375 23.3125 39.375 C22.5803125 39.99890625 21.848125 40.6228125 21.09375 41.265625 C19.51644714 42.57219677 17.91911912 43.85465 16.3125 45.125 C12.86774115 47.91804772 9.85662762 51.09442224 6.8125 54.3125 C5 56 5 56 3 56 C2.67 56.99 2.34 57.98 2 59 C1.34 59 0.68 59 0 59 C0 39.53 0 20.06 0 0 Z " fill="#0097FC" transform="translate(28,6)"/>
<path d="M0 0 C4.15704633 1.62493657 6.89595505 4.67222824 9.9375 7.8125 C10.44990234 8.33392578 10.96230469 8.85535156 11.49023438 9.39257812 C12.50740956 10.42784791 13.52274054 11.4649332 14.53613281 12.50390625 C16.67263804 14.68744595 18.83615311 16.84360181 21 19 C26.66666667 24.66666667 32.33333333 30.33333333 38 36 C38.9075 36.886875 39.815 37.77375 40.75 38.6875 C43 41 43 41 44 43 C27.06222865 44.06601358 27.06222865 44.06601358 22.4609375 41.6875 C20.76965025 39.89201022 19.41902438 38.01485782 18 36 C16.59129965 34.73793017 15.1527179 33.50849058 13.6875 32.3125 C10.93116081 30.04352923 9.52657054 28.20781564 8 25 C6.13355094 23.81669817 6.13355094 23.81669817 4 23 C3.319375 22.608125 2.63875 22.21625 1.9375 21.8125 C-0.15384706 20.68544646 -0.15384706 20.68544646 -3 22 C-3.495 23.485 -3.495 23.485 -4 25 C-5.49609375 26.5078125 -5.49609375 26.5078125 -7.4375 28.125 C-10.79599313 30.97334227 -14.10367719 33.86403634 -17.375 36.8125 C-18.20773438 37.56144531 -19.04046875 38.31039062 -19.8984375 39.08203125 C-21.29498547 40.35657596 -22.66306125 41.66306125 -24 43 C-26.15478516 43.22705078 -26.15478516 43.22705078 -28.7890625 43.1953125 C-29.73007812 43.18886719 -30.67109375 43.18242188 -31.640625 43.17578125 C-33.11789063 43.15064453 -33.11789063 43.15064453 -34.625 43.125 C-35.61757813 43.11597656 -36.61015625 43.10695312 -37.6328125 43.09765625 C-40.08878134 43.07404116 -42.54427168 43.04110799 -45 43 C-43.86913662 39.60740986 -42.79067537 38.66962898 -40.125 36.375 C-39.42632812 35.76398438 -38.72765625 35.15296875 -38.0078125 34.5234375 C-36 33 -36 33 -33 32 C-32.67 31.01 -32.34 30.02 -32 29 C-30.609375 27.59765625 -30.609375 27.59765625 -28.75 26.0625 C-24.80410246 22.7181549 -20.9827285 19.26286435 -17.1875 15.75 C-16.62450195 15.23058838 -16.06150391 14.71117676 -15.48144531 14.17602539 C-12.29302162 11.2266061 -12.29302162 11.2266061 -9.23828125 8.140625 C-8 7 -8 7 -6 7 C-6 6.34 -6 5.68 -6 5 C-4.04072937 3.2856382 -2.04119788 1.61594832 0 0 Z " fill="#0097FB" transform="translate(51,54)"/>
<path d="M0 0 C4.62 0 9.24 0 14 0 C14.20396625 8.71057923 14.36879823 17.41955339 14.46630955 26.13198757 C14.51312949 30.17833648 14.57654235 34.22295662 14.67895508 38.26831055 C14.77731224 42.17828698 14.83067175 46.08660963 14.85389519 49.99772835 C14.87042625 51.48378589 14.90271087 52.96976064 14.95157051 54.45510674 C15.31591338 65.99857014 15.31591338 65.99857014 12.11227417 70.87112427 C8.36969957 74.72700586 4.63119433 77.2212834 0 80 C0 53.6 0 27.2 0 0 Z " fill="#0098FB" transform="translate(6,6)"/>
<path d="M0 0 C1.14626322 0.97866338 2.29199788 1.95794587 3.4375 2.9375 C4.39462891 3.75541016 4.39462891 3.75541016 5.37109375 4.58984375 C6.26991149 5.36795695 7.15936528 6.15936528 8 7 C8.14193337 10.00331018 8.04236378 12.99217134 8 16 C3.05 16 -1.9 16 -7 16 C-7.8435518 7.08245243 -7.8435518 7.08245243 -5.44140625 4 C-3.68715118 2.53164968 -1.9368132 1.2154491 0 0 Z " fill="#0098FB" transform="translate(51,81)"/>
</svg>
