<svg width="27" height="26" viewBox="0 0 27 26" fill="none" xmlns="http://www.w3.org/2000/svg">
<g clip-path="url(#clip0_240_5322)">
<path d="M13.0686 4.47167L13.199 4.699L12.2096 6.4248L10.1321 10.0461L6.53699 7.95528L8.61131 4.33399L10.6888 0.715906L10.7811 0.552612L12.8522 4.09385L13.0686 4.47167Z" fill="white"/>
<path d="M21.2577 3.86016L21.2513 3.89538L20.6468 10.9811L14.217 7.95212L15.4133 7.26052L13.6412 4.16754L13.4217 3.78652L12.3177 1.89743L11.2996 0.158831L17.5226 0.142822L20.0582 4.55817L21.2322 3.87297L21.2577 3.86016Z" fill="white"/>
<path d="M22.2694 17.7497L22.0053 17.7465L21.0413 16.0079L19.0115 12.361L22.6352 10.3182L24.665 13.9683L26.6948 17.6152L26.7839 17.7785L22.7021 17.7561L22.2694 17.7497Z" fill="white"/>
<path d="M18.6011 25.1429L18.5757 25.1237L12.8363 20.9773L18.7093 16.9622L18.687 18.3518L22.2376 18.3998L22.6734 18.4062L24.8496 18.419L26.8571 18.4286L23.6852 23.8173L18.6202 23.7533L18.6043 25.1173L18.6011 25.1429Z" fill="white"/>
<path d="M6.3811 19.4851L6.51155 19.2578H8.49043L12.6423 19.261L12.6391 23.4426L8.48725 23.4394L4.33223 23.433H4.14771L6.16158 19.863L6.3811 19.4851Z" fill="white"/>
<path d="M1.76793 12.6493L1.79657 12.6364L8.20089 9.62671L8.80537 16.7476L7.61231 16.0464L5.83387 19.1394L5.61434 19.5172L4.539 21.4223L3.54956 23.1801L0.428528 17.7594L2.96417 13.3473L1.7902 12.6653L1.76793 12.6493Z" fill="white"/>
</g>
<defs>
<clipPath id="clip0_240_5322">
<rect width="26.4286" height="25" fill="white" transform="translate(0.428528 0.142822)"/>
</clipPath>
</defs>
</svg>
