<svg width="28" height="28" viewBox="0 0 28 28" fill="none" xmlns="http://www.w3.org/2000/svg">
<path d="M13.93 22.4C14.42 22.4 14.8344 22.2306 15.1732 21.8918C15.512 21.553 15.6809 21.1391 15.68 20.65C15.68 20.16 15.5111 19.7456 15.1732 19.4068C14.8353 19.068 14.4209 18.8991 13.93 18.9C13.44 18.9 13.0261 19.0694 12.6882 19.4082C12.3503 19.747 12.1809 20.1609 12.18 20.65C12.18 21.14 12.3494 21.5544 12.6882 21.8932C13.027 22.232 13.4409 22.4009 13.93 22.4ZM12.67 17.01H15.26C15.26 16.24 15.3477 15.6333 15.5232 15.19C15.6987 14.7467 16.1943 14.14 17.01 13.37C17.6167 12.7633 18.095 12.1856 18.445 11.6368C18.795 11.088 18.97 10.4291 18.97 9.66C18.97 8.35333 18.4917 7.35 17.535 6.65C16.5783 5.95 15.4467 5.6 14.14 5.6C12.81 5.6 11.7311 5.95 10.9032 6.65C10.0753 7.35 9.4976 8.19 9.17 9.17L11.48 10.08C11.5967 9.66 11.8594 9.205 12.2682 8.715C12.677 8.225 13.3009 7.98 14.14 7.98C14.8867 7.98 15.4467 8.1844 15.82 8.5932C16.1933 9.002 16.38 9.45093 16.38 9.94C16.38 10.4067 16.24 10.8444 15.96 11.2532C15.68 11.662 15.33 12.0409 14.91 12.39C13.8833 13.3 13.2533 13.9883 13.02 14.455C12.7867 14.9217 12.67 15.7733 12.67 17.01ZM14 28C12.0633 28 10.2433 27.6327 8.54 26.8982C6.83667 26.1637 5.355 25.1659 4.095 23.905C2.835 22.645 1.83773 21.1633 1.1032 19.46C0.368667 17.7567 0.000933333 15.9367 0 14C0 12.0633 0.367733 10.2433 1.1032 8.54C1.83867 6.83667 2.83593 5.355 4.095 4.095C5.355 2.835 6.83667 1.83773 8.54 1.1032C10.2433 0.368667 12.0633 0.000933333 14 0C15.9367 0 17.7567 0.367733 19.46 1.1032C21.1633 1.83867 22.645 2.83593 23.905 4.095C25.165 5.355 26.1627 6.83667 26.8982 8.54C27.6337 10.2433 28.0009 12.0633 28 14C28 15.9367 27.6323 17.7567 26.8968 19.46C26.1613 21.1633 25.1641 22.645 23.905 23.905C22.645 25.165 21.1633 26.1627 19.46 26.8982C17.7567 27.6337 15.9367 28.0009 14 28Z" fill="white"/>
</svg>
