<svg width="30" height="30" viewBox="0 0 30 30" fill="none" xmlns="http://www.w3.org/2000/svg">
<g clip-path="url(#clip0_240_5331)">
<path d="M28.8014 19.4399H26.5632C24.5366 17.5358 21.3574 17.5358 19.3308 19.4399H14.6484C13.6964 19.4399 12.8835 20.1242 12.722 21.0569L8.46838 19.6496C7.86151 19.4509 7.19896 19.5502 6.68674 19.92C6.16895 20.2898 5.86273 20.8803 5.86273 21.515V21.5481C5.86273 22.2214 6.20793 22.8505 6.78139 23.2093L15.2553 28.5516C16.3744 29.258 17.7385 29.4677 19.019 29.1366L26.4295 27.205H28.8069C29.0742 27.205 29.2969 26.9897 29.2969 26.7193V19.9255C29.2969 19.6606 29.0797 19.4399 28.8069 19.4399H28.8014ZM28.3114 26.2336H26.3572C26.3126 26.2336 26.2737 26.2336 26.2347 26.2502L18.7629 28.1984C17.744 28.4633 16.6584 28.2977 15.7675 27.7348L7.29361 22.3925C7.0041 22.2104 6.82593 21.8903 6.82593 21.5426V21.5095C6.82593 20.9631 7.27134 20.516 7.8281 20.5105C7.93946 20.5105 8.04524 20.5271 8.15103 20.5602L12.8334 22.111C13.1341 22.834 13.8467 23.3086 14.6373 23.3086H19.5201C19.7874 23.3086 20.0101 23.0934 20.0101 22.823C20.0101 22.5525 19.7929 22.3373 19.5201 22.3373H14.6373C14.1919 22.3373 13.8022 22.0393 13.6908 21.6088C13.6184 21.3163 13.6797 21.0128 13.869 20.7754C14.0527 20.5381 14.3367 20.4002 14.6373 20.4002H19.5201C19.6482 20.4002 19.7762 20.3505 19.8653 20.2567L19.9154 20.207C21.5857 18.5568 24.2916 18.5568 25.9619 20.207L26.012 20.2567C26.1011 20.345 26.2291 20.4002 26.3572 20.4002H28.3114V26.2281V26.2336Z" fill="white"/>
<path d="M8.14544 13.4797C8.14544 13.4797 8.16214 13.4797 8.16771 13.4853C8.49063 13.5515 8.81912 13.5901 9.14761 13.5901C9.16988 13.5901 9.19215 13.5901 9.21442 13.5901C9.55405 14.2579 10.289 14.6221 11.0295 14.5007L11.6085 14.4014C11.9481 14.6387 12.3657 14.7325 12.7721 14.6608L13.9413 14.4621C14.0416 14.6387 14.164 14.8043 14.3088 14.9478L17.8331 18.4412C17.9222 18.5295 18.0502 18.5847 18.1783 18.5847C18.3064 18.5847 18.4344 18.5351 18.5235 18.4412L22.0478 14.9478C22.9052 14.0979 22.9052 12.7181 22.0478 11.8682C21.1904 11.0183 19.7985 11.0183 18.9411 11.8682L18.1727 12.6298L17.9667 12.4256C18.685 11.802 18.8687 10.7699 18.4121 9.94211C18.4233 9.91451 18.4344 9.8814 18.44 9.8538L18.6404 8.92111C18.8186 8.10431 18.5959 7.24888 18.0447 6.6142L16.2352 4.55012C15.7118 3.95408 14.9546 3.61743 14.1585 3.63399L6.78137 3.77196L0.707089 0.764149C0.556763 0.692403 0.373031 0.697922 0.23384 0.786224C0.089082 0.874527 0 1.02906 0 1.20014V8.45752C0 8.64516 0.111353 8.82177 0.289517 8.89903L4.08664 10.5989L4.82156 11.4929C5.65114 12.4974 6.79807 13.1927 8.07306 13.4687C8.1009 13.4687 8.12317 13.4797 8.151 13.4853L8.14544 13.4797ZM10.3446 13.4356C10.5507 13.3804 10.7511 13.3142 10.946 13.2369C10.9515 13.3362 10.9682 13.4301 10.9961 13.5239L10.8736 13.546C10.6898 13.5791 10.5061 13.5404 10.3502 13.4356H10.3446ZM12.6107 13.706C12.3768 13.7446 12.143 13.6453 12.0149 13.4466C11.9147 13.2921 11.8869 13.0934 11.9481 12.9168C11.9815 12.8175 12.0372 12.7292 12.1207 12.6629L12.5884 12.4311L13.83 12.5801C13.7242 12.8395 13.663 13.121 13.663 13.408C13.663 13.4466 13.663 13.4853 13.663 13.5239L12.5995 13.7005L12.6107 13.706ZM17.8387 13.6563C17.9278 13.7446 18.0558 13.7998 18.1839 13.7998C18.3119 13.7998 18.44 13.7502 18.5291 13.6563L19.637 12.5581C20.1158 12.0834 20.8842 12.0834 21.363 12.5581C21.8418 13.0327 21.8418 13.7943 21.363 14.2689L18.1783 17.4202L14.9992 14.2689C14.576 13.8495 14.5204 13.1927 14.8656 12.7126L16.4022 12.9002C16.6138 12.9278 16.8309 12.9168 17.0425 12.8782L17.8331 13.6619L17.8387 13.6563ZM5.57319 10.8803L4.76589 9.89795C4.71578 9.83725 4.6601 9.7931 4.58772 9.7655L0.974335 8.14846V1.97831L6.45845 4.6881C6.53083 4.72121 6.60877 4.73777 6.68672 4.73777L14.1807 4.59428C14.1807 4.59428 14.203 4.59428 14.2142 4.59428C14.7097 4.59428 15.1774 4.804 15.5058 5.17928L17.3153 7.24336C17.6661 7.64624 17.8053 8.18709 17.6939 8.71139L17.5993 9.14186C17.4322 9.05356 17.2541 8.99285 17.0703 8.95422L16.1795 8.76658L16.2797 8.29195C16.3354 8.03256 16.1684 7.77317 15.9067 7.71798C15.645 7.66279 15.3834 7.82836 15.3277 8.08775L15.2275 8.56238L14.5259 8.41337L13.9747 7.03364C13.8745 6.78529 13.5906 6.66387 13.34 6.76321C13.0895 6.86255 12.967 7.14402 13.0672 7.39237L13.379 8.17605L12.3546 7.9553C12.2265 7.9277 12.0929 7.94978 11.9815 8.016C11.8702 8.08775 11.7922 8.19813 11.7644 8.32506C11.7366 8.452 11.7644 8.58445 11.8312 8.69483C11.9036 8.80521 12.0149 8.87696 12.143 8.90455L16.8588 9.90899C17.4044 10.0249 17.7607 10.5437 17.6661 11.09C17.5714 11.6364 17.0648 12.0117 16.5136 11.9455L12.5494 11.4653C12.4548 11.4543 12.3601 11.4653 12.271 11.515L11.898 11.7026C11.7978 11.7413 11.6976 11.7854 11.6085 11.8461L10.7956 12.249C10.0551 12.6133 9.21442 12.7236 8.40712 12.5581C8.39598 12.5581 8.37928 12.5526 8.36257 12.547C8.33474 12.5415 8.30133 12.536 8.27349 12.5305C7.21008 12.3042 6.25801 11.7247 5.57319 10.8914V10.8803Z" fill="white"/>
</g>
<defs>
<clipPath id="clip0_240_5331">
<rect width="29.2857" height="28.5714" fill="white" transform="translate(0 0.714233)"/>
</clipPath>
</defs>
</svg>
