<svg width="32" height="24" viewBox="0 0 32 24" fill="none" xmlns="http://www.w3.org/2000/svg">
<path d="M13.9162 0.000603453C13.7644 -0.00662311 13.6127 0.05119 13.4898 0.166815C13.2441 0.390838 13.2369 0.773846 13.4609 1.01232L13.6488 1.21467L12.3697 0.665448C12.0662 0.53537 11.7121 0.672674 11.582 0.976189C11.4519 1.28693 11.5892 1.64103 11.9 1.77111L12.3914 1.98791C10.1873 2.12521 8.03377 2.8551 6.35721 4.08361L6.22713 3.86681C6.05369 3.58498 5.68514 3.49103 5.39607 3.66447C5.11424 3.83791 5.02029 4.20646 5.19373 4.4883L5.42498 4.87131L5.39607 4.90021L4.8035 4.27873C4.57225 4.04025 4.18924 4.0258 3.95076 4.25705C3.71229 4.4883 3.69783 4.87131 3.92908 5.10978L4.59393 5.80353C3.9074 6.69963 3.416 7.74025 3.1992 8.90373H28.2609C28.6222 8.90373 28.9113 8.63635 28.9113 8.30392C28.9113 7.9715 28.6222 7.70412 28.2609 7.70412H27.6828L27.8996 7.66076C28.2609 7.61017 28.4777 7.29943 28.4054 6.97424C28.3332 6.64181 28.0441 6.41779 27.6828 6.4756L26.8879 6.60568C26.6711 6.36721 26.4543 6.15763 26.2375 5.96974L26.382 5.81799C26.5988 5.58674 26.6711 5.21096 26.382 4.96525C26.1652 4.72678 25.7967 4.71955 25.5582 4.9508L25.1969 5.29045C24.2646 4.8135 23.2674 4.58224 22.4146 4.47385C22.682 4.28596 22.7543 3.91017 22.5592 3.63557C22.3713 3.36818 21.9955 3.29592 21.7209 3.49103L20.7597 4.1631L21.0054 3.72951C21.1644 3.44045 21.0633 3.07189 20.7742 2.90568C20.4851 2.7467 20.1166 2.84787 19.9576 3.13693L19.524 3.89572C18.5846 3.21642 17.5295 2.72502 16.4238 2.40705L14.3426 0.188495C14.2269 0.065643 14.0752 0.00783002 13.9162 0.000603453ZM10.1512 3.76564L11.264 4.1631C11.5025 4.24982 11.6181 4.50998 11.5387 4.74123C11.4519 4.9797 11.1918 5.09533 10.9605 5.01584L9.84764 4.61115C9.60916 4.52443 9.48631 4.2715 9.57303 4.03303C9.71033 3.7801 9.9199 3.70783 10.1512 3.76564ZM16.3371 5.38439C16.4455 5.60842 16.3515 5.88303 16.1275 5.9842L15.058 6.49728C14.834 6.60568 14.5594 6.50451 14.451 6.28049C14.3498 6.05646 14.4437 5.78908 14.6678 5.68068L15.7373 5.17482C15.9613 5.07365 16.2431 5.20373 16.3371 5.38439ZM23.4625 6.15041L24.3152 6.96701C24.4959 7.14045 24.5031 7.42951 24.3297 7.61018C24.1562 7.78361 23.8744 7.79084 23.6937 7.6174L22.841 6.8008C22.6603 6.62736 22.6531 6.3383 22.8265 6.15764C23.0217 5.99865 23.2963 5.99142 23.4625 6.15041ZM7.97596 7.36447C8.04822 7.60295 7.91815 7.85588 7.67967 7.93537L6.55232 8.2967C6.32107 8.36897 6.06092 8.23889 5.98865 8.00041C5.90916 7.76193 6.03924 7.509 6.27771 7.43674L7.40506 7.07541C7.64354 7.01037 7.91092 7.18381 7.97596 7.36447ZM18.4545 7.12599L19.6035 7.41506C19.8492 7.47287 19.9937 7.71857 19.9359 7.96428C19.8709 8.20275 19.6252 8.35451 19.3867 8.28947L18.2377 8.00041C17.992 7.9426 17.8474 7.69689 17.9125 7.45119C18.0209 7.19103 18.2232 7.08986 18.4545 7.12599ZM0 10.3779C0.121406 13.4492 1.19961 15.9279 3.51066 17.7274C5.96697 19.6352 9.88377 20.7842 15.5855 20.7842C21.2873 20.7842 25.2041 19.6352 27.6611 17.7274C29.9736 15.9279 31.0504 13.4492 31.1732 10.3779H0ZM10.9605 21.9404V23.0967H20.2105V21.9404H10.9605Z" fill="white"/>
</svg>
